<mxfile host="app.diagrams.net" modified="2023-09-29T03:23:22.464Z" agent="Mozilla/5.0 (Windows NT 10.0; Win64; x64) AppleWebKit/537.36 (KHTML, like Gecko) Chrome/116.0.0.0 Safari/537.36" etag="B6EpKqDpYe9Ep1AJhQIh" version="21.7.4" type="github">
  <diagram name="Page-1" id="v4F28NnOAPElCh-6NJHr">
    <mxGraphModel dx="1050" dy="574" grid="1" gridSize="10" guides="1" tooltips="1" connect="1" arrows="1" fold="1" page="1" pageScale="1" pageWidth="583" pageHeight="827" math="0" shadow="0">
      <root>
        <mxCell id="0" />
        <mxCell id="1" parent="0" />
        <mxCell id="FHnLjPULQvUdU1-mToJa-1" value="«interface»&lt;br&gt;&lt;b&gt;Logger&lt;/b&gt;" style="html=1;whiteSpace=wrap;" vertex="1" parent="1">
          <mxGeometry x="237" y="30" width="110" height="50" as="geometry" />
        </mxCell>
        <mxCell id="FHnLjPULQvUdU1-mToJa-6" style="edgeStyle=orthogonalEdgeStyle;rounded=0;orthogonalLoop=1;jettySize=auto;html=1;exitX=0.5;exitY=0;exitDx=0;exitDy=0;entryX=0.5;entryY=1;entryDx=0;entryDy=0;dashed=1;endArrow=block;endFill=0;" edge="1" parent="1" source="FHnLjPULQvUdU1-mToJa-2" target="FHnLjPULQvUdU1-mToJa-1">
          <mxGeometry relative="1" as="geometry" />
        </mxCell>
        <mxCell id="FHnLjPULQvUdU1-mToJa-2" value="LoggerBase" style="swimlane;fontStyle=1;align=center;verticalAlign=top;childLayout=stackLayout;horizontal=1;startSize=26;horizontalStack=0;resizeParent=1;resizeParentMax=0;resizeLast=0;collapsible=1;marginBottom=0;whiteSpace=wrap;html=1;" vertex="1" parent="1">
          <mxGeometry x="212" y="140" width="160" height="34" as="geometry" />
        </mxCell>
        <mxCell id="FHnLjPULQvUdU1-mToJa-4" value="" style="line;strokeWidth=1;fillColor=none;align=left;verticalAlign=middle;spacingTop=-1;spacingLeft=3;spacingRight=3;rotatable=0;labelPosition=right;points=[];portConstraint=eastwest;strokeColor=inherit;" vertex="1" parent="FHnLjPULQvUdU1-mToJa-2">
          <mxGeometry y="26" width="160" height="8" as="geometry" />
        </mxCell>
        <mxCell id="FHnLjPULQvUdU1-mToJa-15" style="edgeStyle=orthogonalEdgeStyle;rounded=0;orthogonalLoop=1;jettySize=auto;html=1;exitX=0.5;exitY=0;exitDx=0;exitDy=0;entryX=0.5;entryY=1;entryDx=0;entryDy=0;endArrow=block;endFill=0;" edge="1" parent="1" source="FHnLjPULQvUdU1-mToJa-7" target="FHnLjPULQvUdU1-mToJa-2">
          <mxGeometry relative="1" as="geometry" />
        </mxCell>
        <mxCell id="FHnLjPULQvUdU1-mToJa-7" value="SystemOutLogger" style="swimlane;fontStyle=1;align=center;verticalAlign=top;childLayout=stackLayout;horizontal=1;startSize=26;horizontalStack=0;resizeParent=1;resizeParentMax=0;resizeLast=0;collapsible=1;marginBottom=0;whiteSpace=wrap;html=1;" vertex="1" parent="1">
          <mxGeometry x="30" y="240" width="160" height="34" as="geometry" />
        </mxCell>
        <mxCell id="FHnLjPULQvUdU1-mToJa-9" value="" style="line;strokeWidth=1;fillColor=none;align=left;verticalAlign=middle;spacingTop=-1;spacingLeft=3;spacingRight=3;rotatable=0;labelPosition=right;points=[];portConstraint=eastwest;strokeColor=inherit;" vertex="1" parent="FHnLjPULQvUdU1-mToJa-7">
          <mxGeometry y="26" width="160" height="8" as="geometry" />
        </mxCell>
        <mxCell id="FHnLjPULQvUdU1-mToJa-16" style="edgeStyle=orthogonalEdgeStyle;rounded=0;orthogonalLoop=1;jettySize=auto;html=1;exitX=0.5;exitY=0;exitDx=0;exitDy=0;entryX=0.5;entryY=1;entryDx=0;entryDy=0;endArrow=block;endFill=0;" edge="1" parent="1" source="FHnLjPULQvUdU1-mToJa-11" target="FHnLjPULQvUdU1-mToJa-2">
          <mxGeometry relative="1" as="geometry" />
        </mxCell>
        <mxCell id="FHnLjPULQvUdU1-mToJa-11" value="SystemErrLogger" style="swimlane;fontStyle=1;align=center;verticalAlign=top;childLayout=stackLayout;horizontal=1;startSize=26;horizontalStack=0;resizeParent=1;resizeParentMax=0;resizeLast=0;collapsible=1;marginBottom=0;whiteSpace=wrap;html=1;" vertex="1" parent="1">
          <mxGeometry x="212" y="240" width="160" height="34" as="geometry" />
        </mxCell>
        <mxCell id="FHnLjPULQvUdU1-mToJa-12" value="" style="line;strokeWidth=1;fillColor=none;align=left;verticalAlign=middle;spacingTop=-1;spacingLeft=3;spacingRight=3;rotatable=0;labelPosition=right;points=[];portConstraint=eastwest;strokeColor=inherit;" vertex="1" parent="FHnLjPULQvUdU1-mToJa-11">
          <mxGeometry y="26" width="160" height="8" as="geometry" />
        </mxCell>
        <mxCell id="FHnLjPULQvUdU1-mToJa-17" style="edgeStyle=orthogonalEdgeStyle;rounded=0;orthogonalLoop=1;jettySize=auto;html=1;exitX=0.5;exitY=0;exitDx=0;exitDy=0;entryX=0.5;entryY=1;entryDx=0;entryDy=0;endArrow=block;endFill=0;" edge="1" parent="1" source="FHnLjPULQvUdU1-mToJa-13" target="FHnLjPULQvUdU1-mToJa-2">
          <mxGeometry relative="1" as="geometry" />
        </mxCell>
        <mxCell id="FHnLjPULQvUdU1-mToJa-13" value="FileLogger" style="swimlane;fontStyle=1;align=center;verticalAlign=top;childLayout=stackLayout;horizontal=1;startSize=26;horizontalStack=0;resizeParent=1;resizeParentMax=0;resizeLast=0;collapsible=1;marginBottom=0;whiteSpace=wrap;html=1;" vertex="1" parent="1">
          <mxGeometry x="390" y="240" width="160" height="34" as="geometry" />
        </mxCell>
        <mxCell id="FHnLjPULQvUdU1-mToJa-14" value="" style="line;strokeWidth=1;fillColor=none;align=left;verticalAlign=middle;spacingTop=-1;spacingLeft=3;spacingRight=3;rotatable=0;labelPosition=right;points=[];portConstraint=eastwest;strokeColor=inherit;" vertex="1" parent="FHnLjPULQvUdU1-mToJa-13">
          <mxGeometry y="26" width="160" height="8" as="geometry" />
        </mxCell>
      </root>
    </mxGraphModel>
  </diagram>
</mxfile>
